# xmcd
# Track frame offsets:
# 182
# 10457
# 21470
# 35357
# 47605
# 61622
# 82062
# 94860
# 106567
# 121350
# 132730
# 146285
# 157590
# 171610
# 186070
# 204670
# 220652
# 232800
# 246115
# 258827
#
# Disc length: 3614 seconds
# Revision: 0
# Processed by: cddbd v1.4PL0 Copyright (c) Steve Scherf et al.
# Submitted via: VisiTrax 2.9.3.171 - For more info visit www.synapsa.com
#
DISCID=090e1c14
DTITLE=Various Artist - Honky Tonkin' - A
DYEAR=1900
DGENRE=Country
TTITLE0=Willimas, Hank Jr. - Honky Tonkin'
TTITLE1=Crowell, Rodney - Above and Beyond
TTITLE2=Chestnut, Mark - Brother Jukebox
TTITLE3=Yoakam, Dwight - The Distance between You and Me
TTITLE4=Travis, Randy - On the Other Hand
TTITLE5=Haggard, Merle - I Think I'll Just Stay Here and Drink
TTITLE6=Stewart, Gary - She's Acting' Singel (I'm Drinkin' Doubles)
TTITLE7=Earle, Steve - Guitar Town
TTITLE8=Brown, T. Graham - Darlene
TTITLE9=Highway 101 - Cry, Cry, Cry
TTITLE10=Gilley, Mickey - Don't The Girls All Get Prettier ar Closing Time
TTITLE11=Loveless, Patty - Timber, I'm Fallin In Love
TTITLE12=Jackson, Allen - Chasin' That Neon Rainbow
TTITLE13=Brandy, Moe - Hank Williams, You Wrote My Live
TTITLE14=Conley, Earl Thomas - Somewhere between Rignt and Wrong
TTITLE15=Sheppard, T.G. - Party Time
TTITLE16=West, Shelly - Jose Cuervo
TTITLE17=McDaniel, Mel - Baby's Got Her Blue Jeans On
TTITLE18=Hank Williams J. and Hank Williams Sr. - There's a Tear in My Beer
TTITLE19=Fender, Freddy - Wasted Days and Wasted Nights
EXTD=
EXTT0=
EXTT1=
EXTT2=
EXTT3=
EXTT4=
EXTT5=
EXTT6=
EXTT7=
EXTT8=
EXTT9=
EXTT10=
EXTT11=
EXTT12=
EXTT13=
EXTT14=
EXTT15=
EXTT16=
EXTT17=
EXTT18=
EXTT19=
PLAYORDER=
